<svg width="800" height="600" viewBox="0 0 800 600" fill="none" xmlns="http://www.w3.org/2000/svg">
  <rect width="800" height="600" fill="#1E293B"/>
  <rect x="50" y="50" width="340" height="240" rx="8" fill="#334155"/>
  <rect x="410" y="50" width="340" height="240" rx="8" fill="#334155"/>
  <rect x="50" y="310" width="340" height="240" rx="8" fill="#334155"/>
  <rect x="410" y="310" width="340" height="240" rx="8" fill="#334155"/>
  <circle cx="220" cy="170" r="60" fill="#3B82F6" fill-opacity="0.2"/>
  <path d="M220 110 A60 60 0 0 1 280 170" stroke="#3B82F6" stroke-width="20"/>
  <rect x="460" y="140" width="240" height="20" rx="4" fill="#475569"/>
  <rect x="460" y="170" width="180" height="20" rx="4" fill="#475569"/>
  <rect x="100" y="360" width="240" height="20" rx="4" fill="#475569"/>
  <rect x="100" y="390" width="180" height="20" rx="4" fill="#475569"/>
  <path d="M460 400 L580 360 L700 440 L700 500 L460 500 Z" fill="#3B82F6" fill-opacity="0.2"/>
</svg> 