<svg xmlns="http://www.w3.org/2000/svg" xmlns:xlink="http://www.w3.org/1999/xlink" width="500" zoomAndPan="magnify" viewBox="0 0 375 374.999991" height="500" preserveAspectRatio="xMidYMid meet" version="1.0"><defs><g/></defs><rect x="-37.5" width="450" fill="#ffffff" y="-37.499999" height="449.999989" fill-opacity="1"/><rect x="-37.5" width="450" fill="#ffffff" y="-37.499999" height="449.999989" fill-opacity="1"/><g fill="#000000" fill-opacity="1"><g transform="translate(22.429691, 227.249985)"><g><path d="M 134.421875 -93.390625 L 133.328125 -93.390625 C 129.992188 -93.390625 127.0625 -92.175781 124.53125 -89.75 C 123.09375 -88.476562 122.054688 -86.894531 121.421875 -85 L 98.953125 -13.40625 C 97.148438 -7.71875 96.15625 -2.707031 95.96875 1.625 L 94.75 1.625 L 67.140625 -75.796875 L 46.5625 -13.40625 C 44.851562 -7.8125 43.90625 -2.800781 43.71875 1.625 L 42.515625 1.625 L 11.78125 -85.140625 C 10.695312 -87.847656 9.023438 -89.898438 6.765625 -91.296875 C 4.515625 -92.691406 2.21875 -93.390625 -0.125 -93.390625 L -1.21875 -93.390625 L -1.21875 -94.75 L 28.84375 -94.75 L 28.84375 -93.390625 L 27.625 -93.390625 C 25.726562 -93.390625 24.304688 -92.78125 23.359375 -91.5625 C 22.410156 -90.351562 21.9375 -89.207031 21.9375 -88.125 C 21.9375 -87.039062 22.070312 -86.046875 22.34375 -85.140625 L 42.921875 -19.21875 L 68.09375 -96.921875 L 69.3125 -96.78125 L 95.96875 -21.921875 L 114.109375 -85.28125 C 114.378906 -86.269531 114.515625 -87.28125 114.515625 -88.3125 C 114.515625 -89.351562 114.0625 -90.457031 113.15625 -91.625 C 112.257812 -92.800781 110.863281 -93.390625 108.96875 -93.390625 L 107.75 -93.390625 L 107.75 -94.75 L 134.421875 -94.75 Z M 134.421875 -93.390625 "/></g></g></g><g fill="#000000" fill-opacity="1"><g transform="translate(155.344944, 227.249985)"><g/></g></g><g fill="#000000" fill-opacity="1"><g transform="translate(189.182844, 227.249985)"><g><path d="M 13.53125 24.359375 L 13.53125 -94.75 L 19.625 -94.75 L 19.625 24.359375 Z M 13.53125 24.359375 "/></g></g></g><g fill="#000000" fill-opacity="1"><g transform="translate(222.343998, 227.249985)"><g/></g></g><g fill="#000000" fill-opacity="1"><g transform="translate(256.181886, 227.249985)"><g><path d="M 96.921875 -1.359375 L 98 -1.359375 L 98 0 L 67.546875 0 L 67.546875 -1.359375 L 68.765625 -1.359375 C 70.660156 -1.359375 72.082031 -1.96875 73.03125 -3.1875 C 73.976562 -4.40625 74.453125 -5.550781 74.453125 -6.625 C 74.453125 -7.707031 74.269531 -8.789062 73.90625 -9.875 L 65.25 -32.890625 L 28.703125 -32.890625 L 19.625 -9.75 C 19.269531 -8.664062 19.09375 -7.601562 19.09375 -6.5625 C 19.09375 -5.53125 19.566406 -4.40625 20.515625 -3.1875 C 21.460938 -1.96875 22.882812 -1.359375 24.78125 -1.359375 L 26 -1.359375 L 26 0 L -1.21875 0 L -1.21875 -1.359375 L 0 -1.359375 C 2.257812 -1.359375 4.472656 -2.078125 6.640625 -3.515625 C 8.804688 -4.960938 10.566406 -7.082031 11.921875 -9.875 L 42.515625 -82.703125 C 45.847656 -90.015625 47.515625 -94.660156 47.515625 -96.640625 L 48.734375 -96.640625 L 85.015625 -9.875 C 86.273438 -7.082031 87.988281 -4.960938 90.15625 -3.515625 C 92.320312 -2.078125 94.578125 -1.359375 96.921875 -1.359375 Z M 30.328125 -36.953125 L 63.625 -36.953125 L 47.375 -80.40625 Z M 30.328125 -36.953125 "/></g></g></g></svg>